<?xml version="1.0" encoding="UTF-8"?>
<svg xmlns="http://www.w3.org/2000/svg" version="1.1" xmlns:xlink="http://www.w3.org/1999/xlink" viewBox="0 0 631 464">
  <!-- Generator: Adobe Illustrator 30.2.1, SVG Export Plug-In . SVG Version: 2.1.1 Build 1)  -->
  <defs>
    <style>
      .st0 {
        fill: #b0bb90;
      }

      .st0, .st1, .st2, .st3, .st4, .st5, .st6, .st7, .st8, .st9, .st10, .st11, .st12, .st13, .st14, .st15, .st16 {
        stroke-miterlimit: 10;
      }

      .st0, .st3, .st4, .st11, .st12, .st14, .st15, .st16 {
        stroke: #010203;
      }

      .st1, .st5, .st6, .st7, .st9, .st10, .st13 {
        stroke: #020303;
      }

      .st1, .st17 {
        fill: #020303;
      }

      .st2 {
        fill: url(#radial-gradient);
        stroke: #c1b583;
      }

      .st3, .st9 {
        fill: #b1bb90;
      }

      .st4 {
        fill: #737189;
      }

      .st5 {
        fill: #203127;
      }

      .st6, .st12, .st16 {
        fill: none;
      }

      .st7 {
        fill: #657747;
      }

      .st8 {
        fill: url(#linear-gradient);
        stroke: url(#linear-gradient1);
      }

      .st10 {
        fill: #233634;
      }

      .st11 {
        fill: #253934;
      }

      .st13 {
        fill: #f496bf;
      }

      .st14 {
        fill: #010203;
      }

      .st15 {
        fill: #e2b1d2;
      }

      .st16 {
        stroke-linecap: round;
      }
      
      #top {
          position: relative;
          animation: shootgun 4s infinite;
      }

      #Eyeball > * {
          position: relative;
          animation: moveeye 4s infinite;
      }

      #Muzzle_flare > * {
          display: inline;
          position: relative;
          animation: muzzleflare 4s infinite;
      }

      @keyframes shootgun {
          34%   {transform: translate(0px);}
          35%   {transform: translate(15px);}
          36%   {transform: translate(0px);}

          44%   {transform: translate(0px);}
          45%   {transform: translate(15px);}
          46%   {transform: translate(0px);}

          54%   {transform: translate(0px);}
          55%   {transform: translate(15px);}
          56%   {transform: translate(0px);}

          64%   {transform: translate(0px);}
          65%   {transform: translate(15px);}
          66%   {transform: translate(0px);}

          74%   {transform: translate(0px);}
          75%   {transform: translate(15px);}
          76%   {transform: translate(0px);}

          84%   {transform: translate(0px);}
          85%   {transform: translate(15px);}
          86%   {transform: translate(0px);}
      }

      @keyframes moveeye {
          0%   {transform:  translate(0px);}
          10%  {transform: translate(30px);}
          15%  {transform:  translate(0px);}
          25%  {transform: translate(-18px, 5px);}
          30%  {transform: translate(0px);}
      }

      @keyframes muzzleflare {
          0%    {opacity: 0;}

          32%   {opacity: 0;}
          33%   {opacity: 1;}
          36%   {opacity: 0;}

          42%   {opacity: 0;}
          43%   {opacity: 1;}
          46%   {opacity: 0;}

          52%   {opacity: 0;}
          53%   {opacity: 1;}
          56%   {opacity: 0;}

          62%   {opacity: 0;}
          63%   {opacity: 1;}
          66%   {opacity: 0;}

          72%   {opacity: 0;}
          73%   {opacity: 1;}
          76%   {opacity: 0;}

          82%   {opacity: 0;}
          83%   {opacity: 1;}
          86%   {opacity: 0;}

          100%  {opacity: 0;}
      }
    </style>
    <linearGradient id="linear-gradient" x1="0" y1="232" x2="631" y2="232" gradientUnits="userSpaceOnUse">
      <stop offset="0" stop-color="#1571b1"/>
      <stop offset="1" stop-color="#6bc4e3"/>
    </linearGradient>
    <linearGradient id="linear-gradient1" x1="-.5" y1="232" x2="631.5" y2="232" gradientUnits="userSpaceOnUse">
      <stop offset="0" stop-color="#1571b1"/>
      <stop offset="1" stop-color="#6bc4e3"/>
    </linearGradient>
    <radialGradient id="radial-gradient" cx="63.17" cy="79.44" fx="63.17" fy="79.44" r="127.02" gradientUnits="userSpaceOnUse">
      <stop offset="0" stop-color="#fffaed"/>
      <stop offset=".75" stop-color="#fef4af"/>
    </radialGradient>
  </defs>
  <g id="BG">
    <rect class="st8" width="631" height="464"/>
  </g>
  <g id="Shield">
    <g>
      <path class="st14" d="M295.38,274.44l3.2-2.24c-1.04-.09-2.67-10.14-2.67-10.14-4.74,2.07-5.04-2.07-5.04-2.07-5.63,3.56-6.52-2.22-6.52-2.22l-4.85,1.4c4.58,5.49,10.06,10.62,15.87,15.27Z"/>
      <path class="st14" d="M322.83,400.2c-.89-3.57-2.24-9.65-3.1-16.63l-4.23,8.2-3.44,1.56c-18.67,18-32.89,12.44-32.89,12.44-23.56-3.33-34.89-22.89-34.89-22.89-4,.89-13.56,1.11-13.56,1.11-5.54-2.43-12.14-10.94-16.47-17.24l32.46,97.24h51.67c-14.38-14.33,2.7-36.36,2.7-36.36,3.26-13.04,14.41-14.67,14.41-14.67-11.97-1.1,2.11-9.8,7.33-12.78Z"/>
      <path class="st14" d="M199.49,308.34l10.95,47c3.43-8.74,15.61-25.34,15.61-25.34,1.12-43.39,30.6-48.43,46.84-47.89-7.56-6.47-11.83-11.03-11.83-11.03l3.75-3.4c-17.11,16-32.17,13.81-37.73,6.92,0,0-29.61,17.67-27.61,33.75Z"/>
      <path class="st0" d="M209.62,359.55c-.23-.92.12-2.4.83-4.21l-10.95-47c-2-16.08,27.61-33.75,27.61-33.75-5.56-6.89,12.89-22,12.89-22l-3.52-4.48c-.1.82-.02,1.6.46,2.04,0,0-39.56,13.96-54.22,44.11,0,0-3.33,11.48.22,18.59l47.56,151.15h16.24l-32.46-97.24c-2.79-4.06-4.64-7.21-4.64-7.21Z"/>
    </g>
  </g>
  <g id="Chest">
    <path class="st5" d="M410.43,324.14s-11.11-14-10.89-20.44c0,0-6.22-14.67-11.56-17.78,0,0-7.56-12.22-24.44-17.56,0,0,5.78,10.67,0,15.78,0,0,7.29,11.33-5.44,19.17v10.86l-9.63,8c-1.58-.35-3.14-.72-4.69-1.12.03,15.79-11.21,19.75-11.21,19.75h-6.07c-1.78,1.78-1.11,5.85-1.11,5.85-11.19,13.75-5.05,43.54-2.56,53.54,1.09-.62,1.81-1,1.81-1l2.67,12.89s6.52,12,0,9.19l9.19,5.93v1.8l1.2-10.33,22-12.22,2.67,2.11s12.89-4,21.22-2.67l1.69-1.69s30.41.36,49.22,8.51c0,0,1.78-33.93,1.19-37.04l10.07-24.3,3.56.11s-34.44-1.33-38.89-27.33Z"/>
    <path class="st6" d="M402.9,342.83h19.66l-8.52-8.89h-21.81c-13.63,22.22-8.65,71.94-8.65,71.94l8.65-1.4c-3.78-26.43,10.66-61.65,10.66-61.65l-10.67-8.89"/>
    <path class="st6" d="M320.14,358.39s25.4-28.84,37.85-27.21c0,0-.22,4.33-1.41,9.04,0,0-1.26,61.18,3.11,66.22"/>
    <path class="st6" d="M356.59,340.22l-31.33,24.59s1.49,44.59,12.45,53.85"/>
  </g>
  <g id="Hips">
    <path class="st7" d="M546.21,373.14c-26.37-2.52-40.59-15.7-40.59-15.7-30.52-.15-35.7-5.33-35.7-5.33l-24.15-.74-10.07,24.3c.59,3.11-1.19,37.04-1.19,37.04-18.81-8.15-49.22-8.51-49.22-8.51l-1.69,1.69c-8.33-1.33-21.22,2.67-21.22,2.67l-2.67-2.11-22,12.22-1.2,10.33v.87s-20.74,6.93-16.23,34.13h109.26c-13.28-34.74,6.97-41.62,6.97-41.62,38.07.59,48.3,10.67,48.3,10.67,21.63,13.19,36.56,13.78,36.56,13.78,6,.67,22.81-14.3,22.81-14.3l40.59-31.19s1.4-.73,1.33-.91l16.51-16.6c-13.89-4.32-32.98-11.88-32.98-11.88-7.41,1.63-23.41,1.19-23.41,1.19Z"/>
    <path class="st6" d="M336.49,428.99s82.69-23.15,100-6.61"/>
    <path class="st6" d="M348.18,464s36.59-13,57.78,0"/>
    <line class="st6" x1="474.84" y1="419.07" x2="498.99" y2="398.18"/>
    <polyline class="st6" points="468.92 417.89 503.44 388.7 503.44 362.04"/>
    <polyline class="st6" points="589.15 379.3 572.03 403.96 503.44 388.7"/>
  </g>
  <g id="Dark_parts_of_helmet">
    <g>
      <path class="st1" d="M504.04,196.19c3.13,8.96,11.01,19.27,11.01,19.27l5.6-3.27c-2.49-7.36-8.7-22.25-16.6-16Z"/>
      <path class="st17" d="M490.27,187.79c-31.85-11.41-68.74,8.15-68.74,8.15l-1.19,18.78c4.7-1.8,7.38-2.06,7.38-2.06-2.8,7.19-1.44,6.76.63,6.46,28.39-13.81,57.91-11.08,68.25-9.52.45-20.58-6.32-21.82-6.32-21.82Z"/>
    </g>
  </g>
  <g id="Pipe">
    <g id="L_Pipe">
      <path class="st9" d="M336.49,429.87v-2.67l-9.19-5.93c6.52,2.81,0-9.19,0-9.19l-2.67-12.89s-23.62,12.44-9.14,13.78c0,0-11.15,1.63-14.41,14.67,0,0-17.09,22.03-2.7,36.36h21.88c-4.51-27.2,16.23-34.13,16.23-34.13Z"/>
      <path class="st6" d="M326.34,407.39c-9.76,1.18-11.78,5.47-11.78,5.47,0,0,10.83-1.35,13.48.66"/>
      <path class="st6" d="M327.31,421.27s-11.18-4.58-25.72,4.62"/>
      <path class="st6" d="M297.28,434.58s8.1-13.86,32.26-11.87"/>
      <path class="st6" d="M331.41,428.15c-32.06,4.21-29.1,35.85-29.1,35.85"/>
      <path class="st6" d="M305.8,464s-4.2-27.34,26.81-34.67"/>
      <line class="st6" x1="325.73" y1="422.53" x2="334.2" y2="430.9"/>
    </g>
    <g id="R_Pipe">
      <path class="st9" d="M544.16,432.53s7.26,16.81-22.81,14.3c0,0-14.93-.59-36.56-13.78,0,0-10.22-10.07-48.3-10.67,0,0-20.25,6.88-6.97,41.62h143.84s23.03-32.53,12.63-61.72l-1.24-.93-40.59,31.19Z"/>
      <path class="st6" d="M453.75,423.43s-14.88,5.56-7.95,40.57"/>
      <path class="st6" d="M458.5,424.05s-15.85,13.59-8.18,39.95"/>
      <path class="st6" d="M486.18,433.88s.58,18.31-6.64,30.12"/>
      <path class="st6" d="M491.05,436.63s.82,16.35-5.62,27.37"/>
      <path class="st6" d="M515.48,445.95s1.17,16.03,0,18.05"/>
      <path class="st6" d="M521.35,446.83s.7,15.26,0,17.17"/>
      <path class="st6" d="M531.43,468.25"/>
      <path class="st6" d="M537.77,445.6s10.11,7.16,7.77,18.4"/>
      <path class="st6" d="M541.83,444.03s11.49,12.39,9.27,19.97"/>
      <path class="st6" d="M566.76,468.92"/>
      <path class="st6" d="M544.58,439.23s27.59-16.31,30.52,20.02"/>
      <path class="st6" d="M544.91,435.97s27.8-16.42,33.79,19.01"/>
      <path class="st6" d="M564.78,416.69s19.43,1.1,22.37,15.47"/>
      <path class="st6" d="M567.86,414.32s18.08,2.37,20.35,11.64"/>
    </g>
  </g>
  <g id="Gun">
    <g id="top">
      <path class="st4" d="M395.92,161.48l-1.89-9.11-56.56-40.22s-19.89-8-28.67,9.78c0,0-35-3.89-57.44,15.44l-9-2-5.89.33-4.11-14.56-25.44-11.44-12.67,3.78-25.89-10.22-1.56-6.67-24.11-11.44h-9.33s-87.44-47-98.89-20.11l17.56,7.89s-3.11,12.78-17.56,2.78c0,0-1.33,6.56,14.11,15.67l59.89,30.44,11,11.67,18.89,9.56,13.78-1.89,3.11-1.67,24,10.56s2.78,12.11,6.22,16.22l16.56,10.33,11.56-.56s12.44-3.22,14.89-4.89h6.78s.33,3.56,5.67,2.56c0,0,.22,5.22,7.78,2.22,0,0,2.67,4.44,8.11,1.22,0,0,1.33,3.11,4.67,2.11,0,0,1.37.68,2.76.82.51-.06,1.04-.12,1.59-.18.07-.03.14-.05.2-.09l-.12.08c7.85-.83,1.58,14.73,5,18.44,10.72,16.09,10.55,20.06,24.35,11.88,0,0-7.6-6.32,12.67-2.09,0,0,6.66,1.51,17.63.92,0,0,13.66.63,29.35,5.39,0,0-.33-21.93,19-12.63l18.13-5.53s14-20,3.89-34.78Z"/>
      <path class="st12" d="M320.97,134.62s-3-9.39,5.83-14.67c0,0,6.11-4.49,14.25-.64-2.01-7.51-8.66-8.9-15.45-8.9-9.24,0-18,8.65-18,17.89s7.49,16.72,16.72,16.72c2.79-.16,5.36-1.13,7.61-2.52-.04,0-9.91.49-10.96-7.88Z"/>
      <path class="st12" d="M314.63,141.92l59.28,33.84s6.97,4.56,11.86-1.61l10.15-12.68"/>
      <path class="st12" d="M396.47,187.88s-1.43-7.69-10.03-14.57"/>
      <path class="st12" d="M346.63,160.19s-7.66,7.05-26.15,11.5l-1.99,3.58"/>
      <polyline class="st12" points="297.12 172.95 296.21 154.43 283.69 147.91 283.69 162.06 233.62 139.76 232.37 121.14"/>
      <polyline class="st12" points="280.78 179.43 281.1 172.95 233.62 154.21 228.48 171.14 211.46 159.31"/>
      <path class="st12" d="M185.06,165.72s21.89-1.66,26.33-5.06c0,0,2-40.22-1.11-42.96"/>
      <line class="st12" x1="225.02" y1="172.64" x2="209.44" y2="161.68"/>
      <path class="st12" d="M296.72,164.87s27.4-1.06,38.63-11.12"/>
      <path class="st12" d="M296.45,159.31s20.57,3.31,33.83-8.45"/>
      <path class="st12" d="M242.37,135.37s1.71,5.96,0,8.29"/>
      <path class="st12" d="M246.81,136.35s1.96,4.22.53,9.52"/>
      <path class="st12" d="M251.37,137.37s4.82.58,2.09,11.23"/>
      <path class="st12" d="M258.54,150.86s3.22-11.84-4.81-11.28"/>
      <path class="st12" d="M263.61,153.12s4-9.38-4.85-10.26"/>
      <path class="st12" d="M272.98,157.29s3.45-8.74-4.84-10.46"/>
      <path class="st12" d="M271.42,148.25c9.88-5.59,7.06,11.49,7.06,11.49"/>
      <line class="st12" x1="283.69" y1="147.91" x2="277.54" y2="148.6"/>
      <path class="st12" d="M311.92,139.51s-28.44-1.08-42.04,7.84"/>
      <path class="st12" d="M296.87,140.01"/>
      <path class="st12" d="M295.61,121.76"/>
      <path class="st12" d="M291.6,122.06s1.65,10.51,1.22,18.38"/>
      <line class="st12" x1="280.62" y1="123.72" x2="281.63" y2="142.51"/>
      <path class="st12" d="M276.24,124.77s1.9,14.15,1.31,18.64"/>
      <line class="st12" x1="266.46" y1="128.12" x2="266.46" y2="144.54"/>
      <path class="st12" d="M262.73,129.85v14.47c8.78-2.07,4.82,10.55,4.82,10.55"/>
      <path class="st12" d="M295.61,121.76s1.5,11.06,1.25,18.25"/>
      <path class="st12" d="M229.51,167.73s8.58,3.08,9.43-11.42"/>
      <path class="st12" d="M235.25,171.14s9.92-4.15,9.11-12.69"/>
      <path class="st12" d="M240.92,173.7s7.24-2.85,10.44-12.48"/>
      <path class="st12" d="M248.7,175.92s7.88-5.15,8.76-12.3"/>
      <path class="st12" d="M256.81,177.14s5.03-5.59,6.56-11.19"/>
      <path class="st12" d="M261.48,179.25s8.87-8.48,5.7-11.8"/>
      <path class="st12" d="M266.03,179.81s5.04-1.39,6.46-10.26"/>
      <polyline class="st12" points="168.37 103.25 166.97 125.95 155.25 139.48 139.64 131.8"/>
      <polyline class="st12" points="117.9 131.8 139.64 131.8 152.75 118.84 153.04 90.05"/>
      <line class="st12" x1="166.97" y1="125.95" x2="152.75" y2="118.84"/>
      <path class="st12" d="M179.25,150.03s20.09,6.46,24.2-13.68c0,0,5.44-18.66-9.2-22.88"/>
      <polyline class="st12" points="204.42 127.65 167.75 113.25 167.5 117.41 204.32 131.33"/>
      <polyline class="st12" points="203.7 135.37 167.29 120.71 167 125.42 202.75 139.08"/>
      <line class="st12" x1="199.98" y1="144.71" x2="164.38" y2="128.94"/>
      <line class="st12" x1="197.87" y1="147.05" x2="162.31" y2="131.33"/>
      <line class="st12" x1="191.85" y1="150.3" x2="159.24" y2="134.87"/>
      <line class="st12" x1="183.48" y1="150.86" x2="156.7" y2="137.8"/>
      <path class="st12" d="M203.73,123.04"/>
      <polyline class="st12" points="203.73 123.04 167.94 110.21 168.14 106.99 202.55 119.98"/>
      <path class="st12" d="M108.48,121.81l16.27,4.14s39.45-13.43,8.62-40.81"/>
      <path class="st12" d="M52.03,72.92l53.16,18.32s3.85-5.63.89-11.7l-48.3-17.48-3.25-5.24"/>
      <path class="st12" d="M48.92,56.82c7.76,1.76,5.9,8.65,5.9,8.65l47.26,16.15s2.51,5.62-1.63,7.99"/>
      <line class="st12" x1="395.56" y1="167.73" x2="392.68" y2="175.99"/>
      <line class="st12" x1="397.27" y1="171.86" x2="394.53" y2="178.95"/>
      <path class="st15" d="M341.05,119.31c-8.13-3.85-14.25.64-14.25.64-8.83,5.28-5.83,14.67-5.83,14.67,1.05,8.37,10.92,7.89,10.96,7.88,5.66-3.52,9.28-9.73,9.28-12.48.69-4.52.56-8.01-.16-10.71Z"/>
    </g>
    <path class="st4" d="M279.29,258.92l-3.41-.59-4.44,3.85-5.63,1.63v2.96l-4.74,4.3s37.48,40.15,87.41,51.11l9.63-8v-11.7s-7.7-1.78-14.52-1.93-44.3-17.48-64.3-41.63Z"/>
    <path class="st4" d="M397.69,198.61l-5.66-2.35-9.26-1.93s-29.93-2.22-34.07,0l-.15,4-5.93.74s-1.78,7.11-4.15,7.26l-.44,7.85s-.59,2.07-2.52,1.19c0,0-1.93,10.81,3.56,10.22,0,0,9.78-5.48,12.44,3.41,0,0,41.19-9.04,44.3-12.3,0,0,5.04-2.67,2.22-16-.15-.72-.26-1.42-.34-2.09Z"/>
    <line class="st12" x1="348.55" y1="198.33" x2="350.75" y2="205.25"/>
    <path class="st12" d="M396.6,216.02s-44.86-11.93-52.43-1.6h21.24s-22.08,2.19-29.41,9.47"/>
    <path class="st12" d="M271.44,262.18s25.28,35.9,86.67,52"/>
  </g>
  <g id="arms">
    <g id="L_Arm">
      <path class="st10" d="M266.54,352.14c.74-30.07-7.7-31.26-7.7-31.26-5.48-.75-23.33,4.97-32.74,8.17-.01.32-.04.62-.04.95,0,0-17.77,24.22-16.44,29.56,0,0,12,20.44,21.11,24.44,0,0,9.56-.22,13.56-1.11,0,0,.09.15.26.42,5.85-.86,9.26-1.98,9.26-1.98l12.74-29.19Z"/>
      <path class="st6" d="M218.54,348.68s20.94-22.76,34.55-27.36"/>
      <path class="st6" d="M237.21,377.92s21.43-30.14,29.38-26.55"/>
      <path class="st9" d="M272.89,282.1c-16.12-.53-45.27,4.45-46.8,46.94,9.41-3.2,27.26-8.92,32.74-8.17,0,0,8.44,1.19,7.7,31.26l-12.74,29.19s-3.41,1.12-9.26,1.98c1.78,2.83,13.1,19.42,34.63,22.47,0,0,14.22,5.56,32.89-12.44l3.44-1.56,4.23-8.2c-1.56-12.58-1.54-28.06,5.66-36.91,0,0-.67-4.07,1.11-5.85h6.07s11.24-3.96,11.21-19.75c-31.01-8.04-56.74-26.84-70.89-38.95Z"/>
      <path class="st6" d="M278.16,405.62s20.36-16.55,36.87-13.63"/>
      <path class="st6" d="M319.63,361.12s-24.98,27.79-41.46,14.31c0,0-9.44-10.07,28.67-41.78"/>
      <path class="st6" d="M284.04,356.38s9.99,10.85,30.52,9.69"/>
      <path class="st6" d="M287.24,352.4s15.58,16.8,32.38,7.02"/>
      <path class="st6" d="M296.6,342.69s6.45,11.43,25.88,8.68"/>
      <path class="st6" d="M299.3,340.18s6.85,9.01,23.18,8.5"/>
      <path class="st6" d="M297.39,300.25s-7.78,23.13,29.11,40.56"/>
      <path class="st6" d="M325.53,342.69s-39.4-11.37-31.88-44.87"/>
      <path class="st6" d="M255.84,312.46s.31-.77,3.22-1.74c4.06-1.35,13.2-3.07,33.66-3.59"/>
      <path class="st6" d="M281.18,288.85s-21.13,6.8-22.13,21.87"/>
      <path class="st6" d="M270.12,308.34s-.25-12.82,9.85-19.05"/>
      <path class="st6" d="M272.15,308.34s-.35-12.47,10.56-18.32"/>
      <path class="st6" d="M281.18,307.13s-.2-10.45,5.97-13.82"/>
      <path class="st6" d="M284.94,307.13s-1.47-9.27,3.97-12.56"/>
    </g>
    <g id="R_Arm">
      <path class="st3" d="M631,214.62l-11.19,5.56s-20.22-17.33-36.67-16.67c0,0,4.44-52-14.89-37.11,0,0-11.78,13.78-21.11,36.44l-7.41-.22s-.07-.17-.22-.48c-12.26,5.67-37.53,22.45-37.53,22.45v2.81l2.28-.03-2.28.03v.15l-1.36-.14-44.79.6-1.89,3.56-13.04-3.15c-.35.2-.55.31-.55.31l-43.75-12.72c-.45.5-.79.68-.79.68-3.11,3.26-44.3,12.3-44.3,12.3-2.67-8.89-12.44-3.41-12.44-3.41-5.48.59-3.56-10.22-3.56-10.22,1.93.89,2.52-1.19,2.52-1.19l.44-7.85c2.37-.15,4.15-7.26,4.15-7.26l5.93-.74.15-4c4.15-2.22,34.07,0,34.07,0-11.7-17.33-29.93-19.93-29.93-19.93-10.67-9.56-13.19-7.78-13.19-7.78-10.96.59-16.89,11.7-16.89,11.7-10.52-9.48-25.04-5.48-25.04-5.48-9.78,1.48-8.44,9.33-8.44,9.33-3.42-3.71-15.53-3.12-23.38-2.29l-8.21,5.14s-12.78-4.44-19.78,3.78l1.33,4.78-9,21.11.11,4.78s9.56,21,7,25.56c0,0-.73,1.6-.9,3.07l3.52,4.48s-18.44,15.11-12.89,22c5.56,6.89,20.62,9.08,37.73-6.92l.99-.9v-2.96l5.63-1.63,4.44-3.85,3.41.59c.07.09.15.17.22.25l4.85-1.4s.89,5.78,6.52,2.22c0,0,.3,4.15,5.04,2.07,0,0,1.63,10.05,2.67,10.14l-3.2,2.24c19.61,15.72,42.97,25.99,48.21,26.11,6.81.15,14.52,1.93,14.52,1.93v.84c12.72-7.84,5.44-19.17,5.44-19.17,5.78-5.11,0-15.78,0-15.78,16.89,5.33,24.44,17.56,24.44,17.56,5.33,3.11,11.56,17.78,11.56,17.78-.22,6.44,10.89,20.44,10.89,20.44,4.44,26,38.88,27.33,38.89,27.33l20.59.63s5.19,5.19,35.7,5.33c0,0,14.22,13.19,40.59,15.7,0,0,16,.44,23.41-1.19,0,0,19.09,7.56,32.98,11.88l.1-.11,8.22-.89s16-.67,11.33-25.11l8.75-11.78v-131.33ZM596.9,368.71h-16.37s24.96-21.25,26.89-42.67l-24.22,3.11,3.78-25-31.11-60.17-24.97,1.22,24.97-1.22,31.11,60.17-3.78,25,24.22-3.11c3.11-12.89,1.56-29.11,1.56-29.11,0-10-41.33-63.56-41.33-63.56h-35.33l-8.8,3.25,8.8-3.25h35.33s40.37,1.78,49.7,49.11c0,0,12.81,35.85-20.44,86.22Z"/>
      <path class="st12" d="M306.78,282.76l13.37-9.61s4.15-4.74,7.56-1.48l22.67.74s4.43.89,6.22,6.07l6.96,5.66"/>
      <path class="st12" d="M346.3,300.69s11.05-12,9.37-24.18"/>
      <path class="st12" d="M341.51,300.22s16.71-15.81,8.86-27.81"/>
      <path class="st12" d="M327.7,271.67s-6.43,3.43-2.18,21.64"/>
      <path class="st12" d="M298.58,272.21l24.26-13.22s2.92-3.33,5.92-1.89l19.33.68s3.33-.46,5.22,3.32l10.23,7.27"/>
      <path class="st12" d="M324.07,257.77s-4.05,8.84-1.6,13.51c0,0-3.92,9.19.36,21.01"/>
      <path class="st12" d="M329.53,257.12s-4.95,4.47-3.03,13.72"/>
      <path class="st12" d="M346.3,257.77s4.49,5.13,2.9,14.6"/>
      <path class="st12" d="M352.61,259.94s1.92,8.18-.23,13.07"/>
      <path class="st12" d="M239.99,252.59s11.86,17.25,25.82,11.88"/>
      <path class="st12" d="M239.99,252.59s17.54-1.31,25.82-9.76l10.07,15.5"/>
      <path class="st12" d="M236.89,246.28s12.98,3.44,26.39-6.71l2.53,3.26"/>
      <path class="st12" d="M257.7,185.03s-1.08,1.8,1.36,5.87c.44.74.89,41.1.89,41.1,0,0,.15,6.01,3.33,7.57,0,0,13.12,1.72,21.91-4.29"/>
      <path class="st12" d="M230.37,219.48s17.02-5.77,29.45,2.24"/>
      <path class="st12" d="M259.75,217.03s-12.19-8.83-28.99-3.52"/>
      <path class="st12" d="M239.25,193.59s11.54-6.28,19.8-2.68"/>
      <path class="st12" d="M296.04,262.86l11.71-4.53c2.44-2.61-8.11-4.39-8.11-4.39-.67-3.22-5.89-4-5.89-4l-15.33-26.22c-2.11-3.33,1.08-6.25,1.08-6.25-.03-15.14,9.78-35.29,9.78-35.29,0,0,17.68-12.53,31.24,4.54"/>
      <path class="st12" d="M258.18,189.22s14.32-10.76,28.34-.69"/>
      <path class="st12" d="M260.17,234.06s12.35,2.22,22.02-3.89"/>
      <path class="st12" d="M284.36,257.77s6.03,0,11.71-7.19"/>
      <path class="st12" d="M290.87,259.99s5.7-2.61,8.77-6.06"/>
      <path class="st12" d="M306.65,215.72s-12.17-6.13-27.14,1.75"/>
      <path class="st12" d="M279.51,225.57s15.33-8.43,29.07-2.55"/>
      <path class="st12" d="M293.76,249.94s12.15.15,21.74-9.11"/>
      <path class="st12" d="M318.9,243.21s-6.48,7.37-19.41,10.23"/>
      <path class="st12" d="M307.93,256.97s22.61-1.69,24.5-11.47"/>
      <path class="st12" d="M339.84,225.21s3.93,14.14-11,20.18"/>
      <path class="st12" d="M316.09,241.38s17.78,3.48,22.02-15.82"/>
      <path class="st12" d="M322.77,178.33s3.99,3.28-15.35,26.61c0,0-3.89,4.22-.78,10.78,0,0,5.56,23,9.44,25.67l4.74,2.67s9.03,1.89,11.59,1.44c0,0,11.22,2.64,16.33-2.29,0,0,4.18-2.27,2.75-14.21"/>
      <path class="st12" d="M335.51,215.37s-11.51-13.02-29.65-1.73"/>
      <path class="st12" d="M338.38,208.11s-8.88-11.2-29.18-5.34"/>
      <line class="st16" x1="345.72" y1="193.46" x2="342.62" y2="199.07"/>
      <path class="st12" d="M325.55,174.39s25.37-3.86,23.58,19.75"/>
      <path class="st12" d="M350.75,172.58s5.43,11.05,3.87,20.85"/>
      <path class="st16" d="M342.82,245.9s58.12,8.76,58.77-28.43"/>
      <path class="st16" d="M338.11,249.94s32.36,8.53,41.07-5.95"/>
      <path class="st16" d="M411.35,220.3s11.19,31-37.44,52.71"/>
      <path class="st16" d="M416.58,221.82s9.53,30.71-39.56,53.21"/>
      <path class="st16" d="M426.68,224.76s20.13,23.45-39.97,59.38"/>
      <path class="st16" d="M431.92,226.28s15.61,30.72-43.34,60.03"/>
      <path class="st11" d="M455.83,228.01l44.79-.6-7.53-.75c-1.78-12.44-7.7-12.74-7.7-12.74-13.12-2.73-40.35,12.18-44.49,14.5l13.04,3.15,1.89-3.56Z"/>
      <path class="st12" d="M442.89,228.9s22.97,55.24-44.11,73.08"/>
      <path class="st12" d="M448.13,230.17s16.43,61.56-48.59,73.53"/>
      <path class="st12" d="M453.94,231.57s12.81,8.24,15.03,3.73c0,0,9.33,9.1,7.11,48.85,0,0,9.33,48.64,42.22,39.31,0,0,23.56-13.19,22.89-52.93,0,0-6.3-38.35-36.93-43.16"/>
      <path class="st12" d="M532.75,266.93c1.78,14.15,2.11,29.74-8.22,31.85-5.89,0-13.56-14.64-16.44-30.56-2.89-16.67,2.92-30.33,8.81-30.33s14.22,14,15.85,29.04Z"/>
      <path class="st12" d="M407.18,319.73s92.26-1.86,58.62-83.11"/>
      <path class="st12" d="M410.43,324.14s45.65,2.32,65.65-40"/>
      <path class="st12" d="M410.93,326.5s38.42,41.73,88.46-4.41"/>
      <path class="st12" d="M484.77,307.13s-4.99,23.4-50.06,33.94"/>
      <path class="st12" d="M487.19,310.93s-2.03,16.14-39.35,32.73"/>
      <path class="st12" d="M469.91,352.11s40.49-8.26,45.33-27.94"/>
      <line class="st12" x1="521.21" y1="321.4" x2="585.95" y2="310.93"/>
      <path class="st12" d="M505.62,357.44s58.69-8.29,77.58-28.29l-62.68-1.85"/>
      <path id="shadow" class="st14" d="M567.64,233.38s41.33,53.56,41.33,63.56c0,0,1.56,16.22-1.56,29.11-1.93,21.41-26.89,42.67-26.89,42.67h16.37c33.26-50.37,20.44-86.22,20.44-86.22-9.33-47.33-49.7-49.11-49.7-49.11Z"/>
      <path class="st12" d="M546.21,373.14l4.69-4.43s49.58-26.36,56.27-40.66"/>
      <line class="st12" x1="586.97" y1="304.15" x2="608.97" y2="296.93"/>
      <line class="st12" x1="554.32" y1="244.06" x2="567.64" y2="233.38"/>
      <path class="st12" d="M538.75,226.28s29.33-10.76,49.33-4.39"/>
      <path class="st12" d="M547.14,202.85s-6.91,10.75-3.36,13.42l38.52-6.07.84-6.68"/>
      <polyline class="st12" points="619.81 220.18 614.31 226.28 631 244.71"/>
      <path class="st12" d="M675.49,529.82"/>
      <path class="st12" d="M485.39,213.92s-23.58,7.63-34.04,17.02"/>
    </g>
  </g>
  <g id="Eyeball">
    <circle class="st13" cx="453.36" cy="198.31" r="14.89"/>
  </g>
  <g id="helmet">
    <path class="st9" d="M445.51,165.96s-23.85,6.85-47.78,32.67l-.05-.02c.08.67.19,1.37.34,2.09,2.08,9.87-.14,13.89-1.43,15.32l43.75,12.72s30.81-17.78,45.04-14.81c0,0,5.93.3,7.7,12.74l8.89.89v-2.96s8.97-5.95,18.81-11.96c-.05-.14-.1-.29-.15-.44l-5.6,3.27s-6.68-10.17-9.81-19.13c-.42.33-.12.24-1.2-.15-1.83-5.23-2.04-9.99,1.89-11.97,10.67-5.35,19,25.46,19,25.46l-4.29,2.51c.05.15.1.29.15.44,6.68-4.08,13.77-8.19,18.73-10.48-2.56-5.59-28.73-58.29-94.01-36.18ZM500.46,210.29l-3.86-.68c-10.34-1.57-39.86-4.29-68.25,9.52-2.07.3-3.43.73-.63-6.46,0,0-2.68.26-7.38,2.06h0c-2.56.98-5.7,2.42-9.36,4.53-.3-7.04,2.81-24.08,2.81-24.08,0,0,34.37-29.48,80-12.59,0,0,13.04,21.63,6.67,27.7Z"/>
    <path class="st10" d="M413.79,195.18s-3.11,17.04-2.81,24.08c3.66-2.12,6.8-3.55,9.36-4.53l1.19-18.78s36.89-19.56,68.74-8.15c0,0,6.77,1.23,6.32,21.82,2.47.37,3.86.68,3.86.68,6.37-6.07-6.67-27.7-6.67-27.7-45.63-16.89-80,12.59-80,12.59Z"/>
    <path class="st10" d="M505.94,184.22c-3.93,1.97-3.72,6.74-1.89,11.97,7.9-6.25,14.11,8.64,16.6,16l4.29-2.51s-8.33-30.81-19-25.46Z"/>
  </g>
  <g id="Muzzle_flare">
    <path class="st2" d="M174.22,128.94l77.14,43.06s-1.08-1.03-2.67-5.18l-67.14-40.87-1.47-11.39,47.8,20.31s-1.22-1.28-1.84-3.07l-48.94-28.55-7.02-20.92-7.78-2.67s-21.65-39.11-30.09-35.56c0,0-49.33-16.44-65.33-11.11,0,0-32.34-9.78-38.37-12.89,0,0-20.52-2.22-28.52-1.78v91.33c5.11.93,9.55,2.12,11.33,3.59,0,0,24.25,7.31,26.67,11.51,0,0,31.56,7.63,29.33,12.6,0,0,32.49,17.97,50.66,13.91,1.1-.24,2.14-.57,3.12-.98,17.25-7.26,34.83-15.73,38.75-10.29,0,0,.8-1.96,7.64-2.2l30.37,13.06-24.87-14.03,1.22-7.89Z"/>
  </g>
</svg>